<svg xmlns="http://www.w3.org/2000/svg" width="2730.662" height="2730.662" fill-rule="evenodd" clip-rule="evenodd" image-rendering="optimizeQuality" shape-rendering="geometricPrecision" text-rendering="geometricPrecision" viewBox="0 0 28444 28444"><path d="M14222 3556c5891 0 10667 4776 10667 10667s-4776 10667-10667 10667S3555 20114 3555 14223 8331 3556 14222 3556zm-4722 7670c0 186-151 337-337 337s-337-151-337-337c0-1054 855-1909 1909-1909s1909 855 1909 1909c0 186-151 337-337 337s-337-151-337-337c0-682-553-1235-1235-1235s-1235 553-1235 1235zm11208 5210c60-176 250-270 426-211 176 60 270 250 211 426-1035 3044-3906 5097-7123 5097s-6088-2053-7123-5097c-60-176 35-367 211-426 176-60 367 35 426 211 943 2773 3554 4639 6486 4639 2933 0 5539-1863 6486-4639zm-4226-5210c0 186-151 337-337 337s-337-151-337-337c0-1054 855-1909 1909-1909s1909 855 1909 1909c0 186-151 337-337 337s-337-151-337-337c0-682-553-1235-1235-1235s-1235 553-1235 1235z"/></svg>